<svg width="27" height="27" viewBox="0 0 27 27" fill="none" xmlns="http://www.w3.org/2000/svg">
<g id="magnifying-glass-solid 1" clip-path="url(#clip0_24_46)">
<path id="Vector" d="M21.9375 10.9688C21.9375 13.3893 21.1518 15.6252 19.8281 17.4393L26.5043 24.1207C27.1635 24.7799 27.1635 25.8504 26.5043 26.5096C25.8451 27.1688 24.7746 27.1688 24.1154 26.5096L17.4393 19.8281C15.6252 21.157 13.3893 21.9375 10.9688 21.9375C4.90957 21.9375 0 17.0279 0 10.9688C0 4.90957 4.90957 0 10.9688 0C17.0279 0 21.9375 4.90957 21.9375 10.9688ZM10.9688 18.5625C11.966 18.5625 12.9534 18.3661 13.8748 17.9845C14.7961 17.6028 15.6332 17.0435 16.3383 16.3383C17.0435 15.6332 17.6028 14.7961 17.9845 13.8748C18.3661 12.9534 18.5625 11.966 18.5625 10.9688C18.5625 9.97152 18.3661 8.98406 17.9845 8.06275C17.6028 7.14143 17.0435 6.3043 16.3383 5.59916C15.6332 4.89401 14.7961 4.33466 13.8748 3.95304C12.9534 3.57142 11.966 3.375 10.9688 3.375C9.97153 3.375 8.98406 3.57142 8.06275 3.95304C7.14143 4.33466 6.3043 4.89401 5.59916 5.59916C4.89401 6.3043 4.33466 7.14143 3.95304 8.06275C3.57142 8.98406 3.375 9.97152 3.375 10.9688C3.375 11.966 3.57142 12.9534 3.95304 13.8748C4.33466 14.7961 4.89401 15.6332 5.59916 16.3383C6.3043 17.0435 7.14143 17.6028 8.06275 17.9845C8.98406 18.3661 9.97153 18.5625 10.9688 18.5625Z" fill="#DAFFFD"/>
</g>
<defs>
<clipPath id="clip0_24_46">
<rect width="27" height="27" fill="white"/>
</clipPath>
</defs>
</svg>
