<svg width="12" height="16" viewBox="0 0 12 16" fill="none" xmlns="http://www.w3.org/2000/svg">
<g id="xmark-solid 1">
<path id="Vector" d="M10.7063 4.70624C11.0969 4.31562 11.0969 3.68124 10.7063 3.29062C10.3156 2.89999 9.68127 2.89999 9.29065 3.29062L6.00002 6.58437L2.70627 3.29374C2.31565 2.90312 1.68127 2.90312 1.29065 3.29374C0.900024 3.68437 0.900024 4.31874 1.29065 4.70937L4.5844 7.99999L1.29377 11.2937C0.903149 11.6844 0.903149 12.3187 1.29377 12.7094C1.6844 13.1 2.31877 13.1 2.7094 12.7094L6.00002 9.41562L9.29377 12.7062C9.6844 13.0969 10.3188 13.0969 10.7094 12.7062C11.1 12.3156 11.1 11.6812 10.7094 11.2906L7.41565 7.99999L10.7063 4.70624Z" fill="#1E3050"/>
</g>
</svg>
