<svg width="16" height="16" viewBox="0 0 16 16" fill="none" xmlns="http://www.w3.org/2000/svg">
<g id="circle-chevron-right-solid 1" clip-path="url(#clip0_24_14)">
<path id="Vector" d="M0 8C0 10.1217 0.842855 12.1566 2.34315 13.6569C3.84344 15.1571 5.87827 16 8 16C10.1217 16 12.1566 15.1571 13.6569 13.6569C15.1571 12.1566 16 10.1217 16 8C16 5.87827 15.1571 3.84344 13.6569 2.34315C12.1566 0.842855 10.1217 0 8 0C5.87827 0 3.84344 0.842855 2.34315 2.34315C0.842855 3.84344 0 5.87827 0 8ZM7.53125 11.7812C7.2375 12.075 6.7625 12.075 6.47188 11.7812C6.18125 11.4875 6.17813 11.0125 6.47188 10.7219L9.19063 8.00313L6.47188 5.28438C6.17813 4.99063 6.17813 4.51562 6.47188 4.225C6.76562 3.93437 7.24062 3.93125 7.53125 4.225L10.7812 7.46875C11.075 7.7625 11.075 8.2375 10.7812 8.52812L7.53125 11.7812Z" fill="#0071C1"/>
</g>
<defs>
<clipPath id="clip0_24_14">
<rect width="16" height="16" fill="white"/>
</clipPath>
</defs>
</svg>
