<svg width="66" height="66" viewBox="0 0 66 66" fill="none" xmlns="http://www.w3.org/2000/svg">
<g id="circle-user-solid 1" clip-path="url(#clip0_24_56)">
<path id="Vector" d="M51.4336 49.5258C48.5848 44.5758 43.2352 41.25 37.125 41.25H28.875C22.7648 41.25 17.4152 44.5758 14.5664 49.5258C19.1039 54.5789 25.6781 57.75 33 57.75C40.3219 57.75 46.8961 54.566 51.4336 49.5258ZM0 33C0 24.2479 3.47678 15.8542 9.66548 9.66548C15.8542 3.47678 24.2479 0 33 0C41.7521 0 50.1458 3.47678 56.3345 9.66548C62.5232 15.8542 66 24.2479 66 33C66 41.7521 62.5232 50.1458 56.3345 56.3345C50.1458 62.5232 41.7521 66 33 66C24.2479 66 15.8542 62.5232 9.66548 56.3345C3.47678 50.1458 0 41.7521 0 33ZM33 35.0625C35.4615 35.0625 37.8223 34.0847 39.5628 32.3441C41.3034 30.6035 42.2812 28.2428 42.2812 25.7812C42.2812 23.3197 41.3034 20.959 39.5628 19.2184C37.8223 17.4778 35.4615 16.5 33 16.5C30.5385 16.5 28.1777 17.4778 26.4372 19.2184C24.6966 20.959 23.7188 23.3197 23.7188 25.7812C23.7188 28.2428 24.6966 30.6035 26.4372 32.3441C28.1777 34.0847 30.5385 35.0625 33 35.0625Z" fill="#DAFFFD"/>
</g>
<defs>
<clipPath id="clip0_24_56">
<rect width="66" height="66" fill="white"/>
</clipPath>
</defs>
</svg>
